# xmcd
#
# Track frame offsets:
#	150
#	15907
#	33673
#	53970
#	73987
#	96373
#	112436
#	134225
#	152390
#	172379
#
# Disc length: 2569 seconds
#
# Revision: 0
# Processed by: cddbd v1.5.2PL0 Copyright (c) Steve Scherf et al.
# Submitted via: audiograbber 1.83.01
#
DISCID=990a070a
DTITLE=My Huyen - My Huyen Dac Biet 7
DYEAR=1900
DGENRE=
TTITLE0=Ky Niem Trong Toi
TTITLE1=Chia Khoa Tinh Yeu
TTITLE2=Mot Lan Nao Cho Toi Gap Lai Anh
TTITLE3=Tan Tro
TTITLE4=Goi Mai Chim Bay
TTITLE5=Canh Thu Xuan
TTITLE6=Ngan Nam Van Doi
TTITLE7=Trai Ngon Hanh Phuc
TTITLE8=Sa Mac Tinh Yeu
TTITLE9=Giot Buon
EXTD=
EXTT0=
EXTT1=
EXTT2=
EXTT3=
EXTT4=
EXTT5=
EXTT6=
EXTT7=
EXTT8=
EXTT9=
PLAYORDER=
